<svg width="2624" height="2624" viewBox="0 0 2624 2624" fill="none"
    xmlns="http://www.w3.org/2000/svg">
    <path
        d="M1178.76 68.865C1244.46 -21.7919 1379.54 -21.7919 1445.24 68.865C1495.72 138.523 1591.34 157.543 1664.63 112.504C1760.02 53.8888 1884.82 105.585 1910.83 214.482C1930.8 298.155 2011.86 352.317 2096.81 338.756C2207.37 321.105 2302.89 416.628 2285.24 527.186C2271.68 612.136 2325.84 693.195 2409.52 713.175C2518.41 739.177 2570.11 863.983 2511.5 959.371C2466.46 1032.66 2485.48 1128.28 2555.14 1178.76C2645.79 1244.46 2645.79 1379.54 2555.14 1445.24C2485.48 1495.72 2466.46 1591.34 2511.5 1664.63C2570.11 1760.02 2518.41 1884.82 2409.52 1910.83C2325.84 1930.8 2271.68 2011.86 2285.24 2096.81C2302.89 2207.37 2207.37 2302.89 2096.81 2285.24C2011.86 2271.68 1930.8 2325.84 1910.83 2409.52C1884.82 2518.41 1760.02 2570.11 1664.63 2511.5C1591.34 2466.46 1495.72 2485.48 1445.24 2555.14C1379.54 2645.79 1244.46 2645.79 1178.76 2555.14C1128.28 2485.48 1032.66 2466.46 959.371 2511.5C863.983 2570.11 739.177 2518.41 713.175 2409.52C693.195 2325.84 612.136 2271.68 527.186 2285.24C416.628 2302.89 321.105 2207.37 338.756 2096.81C352.317 2011.86 298.155 1930.8 214.482 1910.83C105.585 1884.82 53.8888 1760.02 112.504 1664.63C157.543 1591.34 138.523 1495.72 68.865 1445.24C-21.7919 1379.54 -21.7919 1244.46 68.865 1178.76C138.523 1128.28 157.543 1032.66 112.504 959.371C53.8888 863.983 105.585 739.177 214.482 713.175C298.155 693.195 352.317 612.136 338.756 527.186C321.105 416.628 416.628 321.105 527.186 338.756C612.136 352.317 693.195 298.155 713.175 214.482C739.177 105.585 863.983 53.8888 959.371 112.504C1032.66 157.543 1128.28 138.523 1178.76 68.865Z"
        fill="#D5C3B6" />
</svg>